<?xml version="1.0" encoding="UTF-8"?>
<svg version="1.1" xmlns="http://www.w3.org/2000/svg" width="1024" height="1024">
<path d="M0 0 C337.92 0 675.84 0 1024 0 C1024 337.92 1024 675.84 1024 1024 C686.08 1024 348.16 1024 0 1024 C0 686.08 0 348.16 0 0 Z " fill="#FEFEFE" transform="translate(0,0)"/>
<path d="M0 0 C1.95445097 -0.00231016 3.90890106 -0.00549037 5.86334938 -0.00945449 C11.18282914 -0.01773485 16.50223631 -0.01370828 21.82171619 -0.00748205 C27.57842979 -0.00293067 33.33513147 -0.00995455 39.09184265 -0.01544189 C50.34877052 -0.02430884 61.60567162 -0.02242599 72.86260051 -0.01661661 C82.0153457 -0.0120897 91.16808341 -0.01149166 100.32082939 -0.01366425 C101.62622815 -0.01397071 102.93162691 -0.01427718 104.27658321 -0.01459293 C106.92891916 -0.01523242 109.58125512 -0.01588084 112.23359107 -0.01653811 C136.36400628 -0.02227165 160.494408 -0.016345 184.6248209 -0.00585292 C206.62048877 0.00363826 228.61613348 0.00278689 250.61180115 -0.0067749 C275.36549725 -0.01749987 300.11918038 -0.0216853 324.87287849 -0.01555037 C327.51485089 -0.01491331 330.1568233 -0.01428457 332.7987957 -0.01366425 C334.09851797 -0.01335569 335.39824024 -0.01304714 336.73734804 -0.01272924 C345.87423417 -0.01100604 355.01111205 -0.01390928 364.1479969 -0.01862335 C375.28965174 -0.0242457 386.43127841 -0.02268725 397.57293005 -0.01206186 C403.25199921 -0.00682354 408.93102149 -0.00471695 414.61009026 -0.01136017 C419.81800118 -0.0173599 425.02582219 -0.01397873 430.23372506 -0.00340506 C432.10830796 -0.001188 433.98289859 -0.00226876 435.85747642 -0.00715664 C450.47393115 -0.04231732 465.19145637 0.45246853 479.36790466 4.37896729 C480.14553162 4.5906958 480.92315857 4.80242432 481.72434998 5.02056885 C505.05578616 11.68000326 524.35014253 23.78014008 541.99290466 40.25396729 C542.81919373 41.01451416 543.64548279 41.77506104 544.49681091 42.55865479 C563.75161801 60.93961304 577.11479342 87.17125164 581.99290466 113.25396729 C582.15968395 114.09452327 582.32646324 114.93507925 582.49829644 115.80110663 C584.29472186 125.91246411 584.27566401 135.85386528 584.25360107 146.0841217 C584.25662563 148.08034317 584.26051663 150.07656347 584.26519364 152.07278174 C584.27544318 157.53090223 584.27329959 162.98895682 584.26901305 168.44708264 C584.26654029 174.34429128 584.2755668 180.24148427 584.28305054 186.13868713 C584.29578424 197.68138149 584.29759289 209.22405256 584.29525027 220.76675276 C584.29341445 230.15131986 584.29518328 239.53588015 584.29947472 248.9204464 C584.30007713 250.27084428 584.30067833 251.62124216 584.30127832 252.97164005 C584.30218562 255.00679917 584.30309429 257.0419583 584.30401067 259.07711742 C584.31243481 277.9880692 584.31677961 296.89901842 584.31260395 315.80997181 C584.31244757 316.52221447 584.3122912 317.23445714 584.31213008 317.96828291 C584.31132435 321.57784462 584.31047858 325.18740632 584.30961678 328.79696802 C584.30944569 329.51378124 584.30927461 330.23059447 584.30909833 330.9691293 C584.30875168 332.41869801 584.30840315 333.86826671 584.30805275 335.31783541 C584.30269633 357.86988507 584.31062592 380.42189562 584.3290863 402.97393799 C584.34982421 428.33773556 584.36052563 453.70150891 584.35651082 479.06531543 C584.3561155 481.77222391 584.35575395 484.47913239 584.35541344 487.18604088 C584.35532271 487.85250244 584.35523197 488.518964 584.35513849 489.20562136 C584.35397487 499.24536081 584.36063939 509.28507469 584.37122536 519.32480812 C584.38314968 530.74915625 584.38453219 542.17344682 584.37243519 553.59779576 C584.36655398 559.42254712 584.3654262 565.24719326 584.37743759 571.07193756 C584.38832128 576.41202707 584.38516344 581.7519238 584.37117591 587.09200438 C584.36853583 589.01584459 584.37087364 590.93970002 584.37891177 592.86352525 C584.42365689 604.37904045 583.59665151 615.00970668 580.99290466 626.25396729 C580.80093909 627.08903787 580.60897352 627.92410845 580.41119081 628.78448421 C576.59623279 644.21112397 570.24420874 659.30605333 560.99290466 672.25396729 C560.2697406 673.27232666 559.54657654 674.29068604 558.80149841 675.33990479 C555.03949803 680.49594592 551.23042373 685.30135814 546.59056091 689.68756104 C544.99636457 691.25057505 543.63612868 692.88644494 542.24290466 694.62896729 C534.53494485 703.71624622 524.12788986 710.18715478 513.99290466 716.25396729 C513.41588806 716.60346436 512.83887146 716.95296143 512.24436951 717.31304932 C487.98694264 731.79397745 461.59972308 735.413236 433.87265015 735.38768005 C431.94130282 735.38955063 430.00995588 735.39185232 428.07860953 735.39454538 C422.79506093 735.40063933 417.51152822 735.40053262 412.22797692 735.399351 C406.52020216 735.39914638 400.81243243 735.4046716 395.10466003 735.40940857 C383.93046849 735.41770266 372.75628223 735.42046286 361.58208787 735.42102095 C352.4950073 735.42149673 343.40792848 735.42355458 334.32084846 735.42672157 C312.72781205 735.43409348 291.13477725 735.44024675 269.54173946 735.43972301 C268.85184934 735.43970744 268.16195923 735.43969186 267.45116334 735.43967581 C263.95490294 735.43959271 260.45864253 735.43949366 256.96238213 735.4393911 C256.26807425 735.43937115 255.57376638 735.43935121 254.85841887 735.43933066 C253.45435965 735.43929022 252.05030042 735.43924842 250.6462412 735.43920527 C228.81265165 735.43859283 206.97907765 735.4460948 185.14549255 735.45977783 C160.58665906 735.47516261 136.02783676 735.48372994 111.46899801 735.48281461 C98.4766183 735.48248315 85.48425611 735.48520792 72.49188042 735.49599266 C61.42845929 735.50511762 50.36506365 735.50725656 39.30164038 735.50048324 C33.66286837 735.49722801 28.02414519 735.49712514 22.38537788 735.50583649 C17.21166704 735.51374677 12.03804337 735.51222423 6.86433453 735.50355235 C5.00434017 735.50202727 3.14433916 735.50379557 1.28435265 735.50941243 C-13.94225863 735.55230576 -29.75521494 735.31528786 -44.50709534 731.12896729 C-45.27497375 730.91796387 -46.04285217 730.70696045 -46.83399963 730.48956299 C-70.58702922 723.64473364 -91.09368449 711.2142389 -109.00709534 694.25396729 C-110.35094299 693.00679932 -110.35094299 693.00679932 -111.72193909 691.73443604 C-129.44139 674.76054406 -140.97908325 652.71509558 -147.81959534 629.31646729 C-148.11193054 628.354021 -148.11193054 628.354021 -148.41017151 627.37213135 C-152.40228508 612.8112094 -152.30034972 597.30536151 -152.26106262 582.32952881 C-152.26337282 580.38404013 -152.26655307 578.43855232 -152.27051711 576.49306631 C-152.27879692 571.1983202 -152.27477115 565.90364702 -152.26854467 560.60890079 C-152.26399304 554.87875315 -152.27101731 549.14861749 -152.27650452 543.41847229 C-152.28537136 532.21334633 -152.28348861 521.00824725 -152.27767923 509.80312026 C-152.27315206 500.69185963 -152.2725544 491.58060652 -152.27472687 482.46934509 C-152.27503333 481.16978578 -152.2753398 479.87022647 -152.27565555 478.53128657 C-152.27629504 475.89079034 -152.27694347 473.25029412 -152.27760074 470.60979789 C-152.28313392 446.58683673 -152.27740769 422.56388965 -152.26691554 398.54093077 C-152.25742548 376.64595204 -152.25827479 354.75099659 -152.26783752 332.85601807 C-152.27856426 308.21401361 -152.28274685 283.57202255 -152.276613 258.93001604 C-152.27597594 256.29954052 -152.27534719 253.669065 -152.27472687 251.03858948 C-152.27426404 249.09750947 -152.27426404 249.09750947 -152.27379186 247.11721572 C-152.27206912 238.02287838 -152.27497095 228.92854932 -152.27968597 219.83421326 C-152.28531034 208.74272596 -152.28374572 197.65126695 -152.27312449 186.55978286 C-152.26788869 180.9069182 -152.26577518 175.2541006 -152.27242279 169.60123634 C-152.2784279 164.41609485 -152.2750327 159.2310436 -152.26446769 154.04591018 C-152.26225285 152.1807307 -152.26332623 150.31554343 -152.26821926 148.45036906 C-152.30984228 131.25059578 -151.26227179 114.73294775 -146.00709534 98.25396729 C-145.80632385 97.62313232 -145.60555237 96.99229736 -145.3986969 96.34234619 C-139.95283028 79.63973061 -131.29543478 64.66909532 -120.00709534 51.25396729 C-119.27877502 50.38513916 -118.55045471 49.51631104 -117.80006409 48.62115479 C-108.39921402 37.81441183 -98.0360515 28.98371268 -86.00709534 21.25396729 C-84.62844299 20.34711182 -84.62844299 20.34711182 -83.22193909 19.42193604 C-57.71249556 3.52786644 -29.39522614 -0.0767468 0 0 Z " fill="#4C56E2" transform="translate(296.00709533691406,143.74603271484375)"/>
<path d="M0 0 C6.10719542 5.81935629 8.65842736 12.80405105 8.875 21.125 C8.75391957 31.02937889 6.68870772 41.03303564 -0.52734375 48.203125 C-9.83697616 55.74221382 -21.85940323 56.64719569 -33.4375 55.75 C-40.78307276 54.51710415 -45.80061337 51.47612329 -51.4375 46.75 C-52.76578295 45.74330134 -54.09781994 44.74148128 -55.4375 43.75 C-65.35437089 50.68934886 -72.23568611 59.11306102 -75.05151367 71.12988281 C-75.97834307 77.42130158 -75.77917543 83.84146556 -75.75 90.1875 C-75.74826279 91.34809433 -75.74826279 91.34809433 -75.74649048 92.53213501 C-75.70545809 106.43279799 -74.6775078 120.01755124 -72.4375 133.75 C-72.3147168 134.51248047 -72.19193359 135.27496094 -72.06542969 136.06054688 C-71.30609013 140.65005375 -70.40045607 145.19827108 -69.4375 149.75 C-69.1601201 151.1262948 -68.8827776 152.50259714 -68.60546875 153.87890625 C-58.86985528 200.99565188 -38.54090825 255.22035951 3.484375 282.85546875 C24.03325351 295.50293839 48.11806809 300.1770731 71.7421875 294.78515625 C104.06884089 286.02588923 126.11694561 264.86979742 142.7890625 236.35546875 C157.75930537 209.88607174 168.44197548 180.58368586 174.01391602 150.67749023 C174.42406172 148.48876876 174.8550596 146.30393635 175.29663086 144.12133789 C177.2366147 134.4260233 178.43884892 124.78770879 179.25 114.9375 C179.31253967 114.19842407 179.37507935 113.45934814 179.43951416 112.69787598 C182.4471863 81.92470524 182.4471863 81.92470524 171.5625 53.75 C168.5336369 50.18738821 165.45227553 47.34318369 161.5625 44.75 C158.2957067 45.07667933 156.72000708 46.29719775 154.4375 48.5625 C146.88753752 55.17269922 139.18067925 56.37478685 129.3125 56.06640625 C118.42923946 55.14813114 110.06770449 52.11033069 102.1875 44.4375 C99.95029117 40.73750078 98.72733532 36.8974073 97.5625 32.75 C97.28212891 31.81414062 97.28212891 31.81414062 96.99609375 30.859375 C94.98098067 21.05612217 96.82407012 12.33639696 101.125 3.5625 C108.25079843 -4.65957511 118.3097923 -7.34892446 128.81640625 -8.49609375 C139.53333093 -8.86414975 148.59159551 -5.44648266 156.640625 1.55859375 C158.99773937 3.86123699 161.12264723 6.06663454 162.91015625 8.84375 C165.07936296 11.34628635 166.89003458 11.74839771 170.0625 12.625 C186.73257082 17.78526376 197.56537648 28.08315439 206.39453125 42.8046875 C228.84523242 85.65994999 213.91055936 147.75188158 200.35107422 191.27636719 C189.83237324 224.27187132 175.6859888 256.53280258 152.5625 282.75 C152.1308252 283.24193848 151.69915039 283.73387695 151.25439453 284.24072266 C130.10222101 308.231207 104.33957089 324.35140923 72.5625 329.75 C71.5725 329.75 70.5825 329.75 69.5625 329.75 C69.60078121 340.29573241 69.66046427 350.84111598 69.74640274 361.38657379 C69.78567127 366.28490915 69.81795976 371.18307029 69.83349609 376.08154297 C69.8488 380.82154622 69.88348363 385.56106977 69.93080902 390.30085754 C69.94548279 392.09621476 69.95353282 393.89164052 69.95438385 395.6870575 C69.98065985 423.36243744 79.17417201 449.03608523 98.71875 468.9453125 C118.3608485 488.31760195 143.0943724 498.25474157 170.5625 499.1875 C196.22674139 498.44231297 219.24930712 487.29748447 237.5625 469.75 C238.19929688 469.16476562 238.83609375 468.57953125 239.4921875 467.9765625 C262.80508475 445.90701977 267.65830129 413.9276066 268.51831055 383.48388672 C268.54018433 382.62561279 268.54018433 382.62561279 268.5625 381.75 C267.73105469 381.6571875 266.89960937 381.564375 266.04296875 381.46875 C251.69689151 378.50614819 238.11980851 368.13894339 229.4765625 356.66796875 C218.52267286 339.96887577 214.40356955 322.28235027 216.99609375 302.4296875 C220.23011445 287.36437366 228.67941261 274.32437327 240.5625 264.75 C241.16707031 264.23566406 241.77164062 263.72132813 242.39453125 263.19140625 C256.99372391 251.35837641 275.20455187 248.27760018 293.49609375 250.03125 C311.74159905 252.78528854 327.71860862 262.76815033 338.80322266 277.38623047 C350.04678343 293.37844703 353.19457038 312.08417857 349.875 331.25 C345.25377607 349.32341689 334.14552041 364.52471445 318.19213867 374.18823242 C312.68007404 377.40897259 307.75903017 379.39556718 301.5625 380.75 C301.58344727 381.70551758 301.60439453 382.66103516 301.62597656 383.64550781 C302.26004457 415.42075571 299.35336995 443.33888185 281.5625 470.75 C281.19962891 471.31203125 280.83675781 471.8740625 280.46289062 472.453125 C270.84580894 487.15186602 258.98127217 499.721147 244.5625 509.75 C243.68464844 510.37132812 242.80679687 510.99265625 241.90234375 511.6328125 C222.12979149 524.93380542 198.31917615 532.8009193 174.5625 533.75 C173.15291016 533.811875 173.15291016 533.811875 171.71484375 533.875 C136.95958684 534.63990249 103.18244491 521.45616338 78.06640625 497.43359375 C76.85340788 496.25083499 75.64375517 495.06463515 74.4375 493.875 C73.85589111 493.30289795 73.27428223 492.7307959 72.67504883 492.14135742 C68.5625 487.99534805 68.5625 487.99534805 68.5625 485.75 C67.9025 485.75 67.2425 485.75 66.5625 485.75 C46.23591499 463.62386145 34.29602422 429.48640263 34.44897461 399.68164062 C34.44882858 398.91969391 34.44868256 398.15774719 34.4485321 397.37271118 C34.44922219 394.88386062 34.45697171 392.3950873 34.46484375 389.90625 C34.46671115 388.16890504 34.46813353 386.43155955 34.46913147 384.69421387 C34.4729313 380.14374309 34.4827397 375.59330474 34.49383545 371.04284668 C34.5041043 366.39054808 34.50864077 361.73824419 34.51367188 357.0859375 C34.52436446 347.97394417 34.54141012 338.86197479 34.5625 329.75 C33.95364456 329.6870575 33.34478912 329.62411499 32.71748352 329.55926514 C31.51215218 329.43083221 31.51215218 329.43083221 30.2824707 329.29980469 C29.48799026 329.21623718 28.69350983 329.13266968 27.87495422 329.04656982 C1.11076118 325.61409019 -21.54948965 308.76011691 -40.4375 290.75 C-41.62472656 289.64205078 -41.62472656 289.64205078 -42.8359375 288.51171875 C-89.02486488 244.18655511 -109.86361706 166.06688549 -111.54370117 103.81494141 C-111.60686989 100.08510278 -111.62319836 96.35605922 -111.62280273 92.62573242 C-111.62499291 90.31996277 -111.6432284 88.01467019 -111.66210938 85.70898438 C-111.74561092 64.59089091 -106.6754373 44.25927865 -91.71606445 28.54174805 C-84.7062336 21.47806446 -78.64768361 16.75369051 -69.12597656 13.68725586 C-59.9116181 10.83423768 -59.9116181 10.83423768 -53.74609375 3.70703125 C-49.42503113 -2.75521463 -40.09843877 -6.49256439 -32.8125 -8 C-21.22465984 -9.05344001 -9.24629089 -7.47209485 0 0 Z " fill="#FDFDFE" transform="translate(395.4375,252.25)"/>
<path d="M0 0 C6.41545437 4.53987176 11.2963939 11.50877974 13.4375 19.125 C14.82462129 28.68072445 13.95441041 36.78054162 9.125 45.3125 C3.77314907 52.08101736 -2.70177709 57.33271407 -11 60 C-19.85038231 60.80971583 -28.29677347 60.93994487 -36 56 C-37.04220703 55.38125 -37.04220703 55.38125 -38.10546875 54.75 C-44.90332729 50.26060749 -48.44271631 43.96399485 -51.375 36.5 C-53.19461747 26.31014218 -51.78113908 17.24379478 -46.4375 8.3125 C-35.50940853 -7.05768351 -15.74792649 -9.03959527 0 0 Z " fill="#5F47E0" transform="translate(698,541)"/>
<path d="M0 0 C1.95419173 -0.00087434 3.90838324 -0.00262949 5.8625735 -0.00517833 C11.18067559 -0.00961111 16.49869581 -0.00170482 21.81678748 0.00837779 C27.57112593 0.01706928 33.3254603 0.01408812 39.07980347 0.01257324 C49.03242194 0.01152797 58.98501404 0.017767 68.93762589 0.02904892 C83.32717164 0.04534971 97.71670474 0.0505166 112.10625874 0.0530249 C135.45617149 0.05739484 158.80607021 0.07066758 182.15597534 0.08963013 C204.82915169 0.10802175 227.50232427 0.1221778 250.17550659 0.13064575 C251.2252648 0.13104033 251.2252648 0.13104033 252.29623025 0.13144288 C259.32479503 0.1340801 266.35335984 0.1366317 273.38192468 0.1391206 C287.69779292 0.14419197 302.01366092 0.14983447 316.32952881 0.15582275 C318.30139264 0.15664693 318.30139264 0.15664693 320.3130921 0.15748776 C363.53953395 0.17580555 406.7659685 0.20727133 449.99240112 0.24050903 C449.99240112 0.57050903 449.99240112 0.90050903 449.99240112 1.24050903 C402.68960421 1.36917384 355.38680427 1.49667233 308.08400023 1.6226913 C302.44897499 1.63770448 296.81394977 1.65272693 291.17892456 1.66775513 C289.49677955 1.67224105 289.49677955 1.67224105 287.78065181 1.6768176 C269.82541922 1.72472227 251.87018873 1.77337103 233.91495895 1.82231444 C215.37333128 1.87283898 196.83170146 1.92251843 178.29006958 1.97147608 C167.92526086 1.99886608 157.56045333 2.02659777 147.19564819 2.05531311 C136.45783314 2.08504165 125.72001521 2.11352181 114.9821949 2.14128506 C112.16100644 2.14865944 109.33981869 2.15626507 106.51863098 2.1639204 C86.97735211 2.21648149 67.43637438 2.24922671 47.89502692 2.22257835 C45.07478413 2.21881616 42.25454125 2.21562838 39.43429756 2.21261358 C37.59507368 2.2105764 35.75584982 2.20851998 33.91662598 2.20644379 C33.0188157 2.20543123 32.12100542 2.20441867 31.19598877 2.20337543 C25.98668127 2.19690873 20.77741351 2.18556376 15.56812477 2.17028689 C12.37360241 2.16187778 9.1790832 2.15759362 5.98455191 2.15427744 C4.52772906 2.15184851 3.07090772 2.14766087 1.61409616 2.14143026 C-11.02442819 2.08836412 -23.70552001 2.065779 -36.00759888 5.24050903 C-38.14786502 5.79283578 -40.27055728 6.29158121 -42.44119263 6.71316528 C-45.03466765 7.24607111 -47.53337931 7.92130598 -50.07009888 8.67800903 C-50.90670044 8.92421997 -51.743302 9.17043091 -52.60525513 9.42410278 C-54.87463491 10.19532291 -56.87335733 11.16063383 -59.00759888 12.24050903 C-60.4364238 12.74495554 -61.87459419 13.22356085 -63.32009888 13.67800903 C-77.54966052 18.35939576 -92.75127512 27.17399094 -103.00759888 38.24050903 C-103.50259888 39.23050903 -103.50259888 39.23050903 -104.00759888 40.24050903 C-104.75009888 40.65300903 -105.49259888 41.06550903 -106.25759888 41.49050903 C-109.66586645 43.65940658 -111.4810246 46.09936263 -114.00759888 49.24050903 C-114.99759888 49.73550903 -114.99759888 49.73550903 -116.00759888 50.24050903 C-116.44072388 50.96238403 -116.87384888 51.68425903 -117.32009888 52.42800903 C-118.66312762 54.66639027 -119.95780707 56.45880138 -121.63259888 58.42800903 C-123.9736677 60.97649443 -123.9736677 60.97649443 -125.00759888 63.24050903 C-125.66759888 63.24050903 -126.32759888 63.24050903 -127.00759888 63.24050903 C-127.39818481 64.56502075 -127.39818481 64.56502075 -127.79666138 65.91629028 C-128.99083945 69.19450169 -130.40391816 71.57231481 -132.38259888 74.42800903 C-136.27160523 80.35874373 -138.87262266 86.48400567 -140.51931763 93.38504028 C-141.00759888 95.24050903 -141.00759888 95.24050903 -142.44509888 97.99050903 C-144.66317211 102.60410136 -146.68817216 107.19878919 -145.00759888 112.24050903 C-145.66759888 112.24050903 -146.32759888 112.24050903 -147.00759888 112.24050903 C-146.96634888 113.23050903 -146.92509888 114.22050903 -146.88259888 115.24050903 C-146.86458426 118.1889011 -147.2957891 120.7104087 -148.07009888 123.55300903 C-149.38301991 127.03450956 -149.38301991 127.03450956 -148.00759888 129.24050903 C-148.2675019 130.60574675 -148.59232315 131.95877211 -148.94509888 133.30300903 C-150.0294422 138.29978029 -150.20426214 143.08916444 -150.19509888 148.17800903 C-150.19566284 148.92381226 -150.19622681 149.66961548 -150.19680786 150.4380188 C-150.16520472 153.62557748 -150.02210915 156.19697821 -149.00759888 159.24050903 C-149.34093221 161.57384237 -149.67426554 163.9071757 -150.00759888 166.24050903 C-149.67759888 167.23050903 -149.34759888 168.22050903 -149.00759888 169.24050903 C-149.00328094 171.4064956 -149.06523356 173.572858 -149.16384888 175.73660278 C-149.21670044 177.01728638 -149.269552 178.29796997 -149.32400513 179.61746216 C-149.41488606 181.64951073 -149.50775707 183.6814616 -149.6008606 185.71340942 C-149.68905847 187.67926857 -149.77029023 189.64543633 -149.85134888 191.61160278 C-149.90484497 192.78650269 -149.95834106 193.96140259 -150.01345825 195.17190552 C-150.0084208 197.81005945 -149.73688678 199.74095064 -149.00759888 202.24050903 C-149.09353638 204.52957153 -149.09353638 204.52957153 -149.38259888 206.86550903 C-149.47283325 207.64152466 -149.56306763 208.41754028 -149.65603638 209.21707153 C-150.00759888 211.24050903 -150.00759888 211.24050903 -151.00759888 213.24050903 C-150.34759888 213.57050903 -149.68759888 213.90050903 -149.00759888 214.24050903 C-149.30056763 216.2587382 -149.59353638 218.27696737 -149.88650513 220.29519653 C-150.17602858 222.3219157 -150.17602858 222.3219157 -149.00759888 224.24050903 C-149.00325544 225.81428178 -149.06575284 227.38854051 -149.16384888 228.95925903 C-149.21670044 229.89125122 -149.269552 230.82324341 -149.32400513 231.78347778 C-149.44640096 233.75483195 -149.56879679 235.72618612 -149.69119263 237.69754028 C-149.74404419 238.62953247 -149.79689575 239.56152466 -149.85134888 240.52175903 C-149.90484497 241.37834106 -149.95834106 242.2349231 -150.01345825 243.11746216 C-150.1648135 245.29669926 -150.1648135 245.29669926 -149.00759888 247.24050903 C-149.09729362 250.2693168 -149.24808181 253.27542361 -149.43226624 256.29888916 C-149.92767207 265.71008869 -150.12792689 275.10455422 -150.16581726 284.52807617 C-150.16866005 285.21665196 -150.17150285 285.90522775 -150.17443179 286.61466947 C-150.19116751 291.05869549 -150.20048466 295.50271877 -150.20820749 299.94676828 C-150.21633883 304.01732288 -150.22999101 308.08785982 -150.24291992 312.15840149 C-150.26450543 319.18453278 -150.28271376 326.21066602 -150.29852486 333.23681259 C-150.32138915 343.39501976 -150.34950744 353.55320725 -150.37884413 363.71139754 C-150.42631921 380.19863168 -150.46963674 396.68587394 -150.51028442 413.17312622 C-150.54974229 429.1741092 -150.59119257 445.175085 -150.63528442 461.17605591 C-150.6380087 462.16494552 -150.64073297 463.15383513 -150.64353979 464.17269109 C-150.65722096 469.13443295 -150.6709409 474.0961747 -150.6846801 479.0579164 C-150.79832874 520.11876559 -150.9052068 561.17963033 -151.00759888 602.24050903 C-151.33759888 602.24050903 -151.66759888 602.24050903 -152.00759888 602.24050903 C-152.04185751 557.59088502 -152.07366271 512.94125958 -152.09228516 468.29162598 C-152.09256127 467.63012462 -152.09283738 466.96862327 -152.09312187 466.28707642 C-152.09910857 451.90866299 -152.10464881 437.53024943 -152.10972954 423.15183566 C-152.11222407 416.10001321 -152.1148172 409.0481908 -152.11746216 401.99636841 C-152.11772368 401.29465116 -152.11798519 400.59293392 -152.11825464 399.86995251 C-152.12676762 377.15141097 -152.14178297 354.43287941 -152.16019332 331.71434391 C-152.17962439 307.69243766 -152.19159741 283.67053768 -152.19577587 259.64862382 C-152.19851654 245.26742097 -152.20716477 230.88624681 -152.22343181 216.50505279 C-152.23402475 206.63588608 -152.23719427 196.76673414 -152.23460163 186.89756216 C-152.23332394 181.20836398 -152.23524694 175.51921585 -152.24600983 169.83002663 C-152.25581089 164.61086565 -152.25618972 159.39178794 -152.24939667 154.17262296 C-152.24855827 152.2947899 -152.25103689 150.41695144 -152.25736524 148.53912885 C-152.312031 131.30118677 -151.27460905 114.75659723 -146.00759888 98.24050903 C-145.80682739 97.60967407 -145.60605591 96.97883911 -145.39920044 96.32888794 C-139.95333382 79.62627236 -131.29593832 64.65563707 -120.00759888 51.24050903 C-119.27927856 50.37168091 -118.55095825 49.50285278 -117.80056763 48.60769653 C-108.39971756 37.80095358 -98.03655504 28.97025443 -86.00759888 21.24050903 C-84.62894653 20.33365356 -84.62894653 20.33365356 -83.22244263 19.40847778 C-57.7140156 3.51504153 -29.39540311 -0.09928112 0 0 Z " fill="#0A53DC" transform="translate(296.0075988769531,143.75949096679688)"/>
<path d="M0 0 C0.99 0 1.98 0 3 0 C3 0.66 3 1.32 3 2 C-4.41050524 9.15340608 -13.20013012 14.73238889 -22 20 C-22.8655249 20.52424561 -22.8655249 20.52424561 -23.74853516 21.05908203 C-48.03744705 35.55880575 -74.44862841 39.16686798 -102.21014404 39.12025452 C-104.15090742 39.12069112 -106.09167074 39.12156766 -108.03243375 39.12284368 C-113.34126568 39.12507118 -118.6500773 39.12109131 -123.95890665 39.11606562 C-129.69290063 39.11173619 -135.42689352 39.11320931 -141.16088867 39.1139679 C-151.08741272 39.11449155 -161.01393018 39.11136129 -170.94045258 39.10573006 C-185.29243504 39.09759361 -199.64441432 39.09499764 -213.99639884 39.09374207 C-237.28308283 39.09155492 -260.56976323 39.08491258 -283.85644531 39.07543945 C-306.47363263 39.06624932 -329.090819 39.0591685 -351.70800781 39.05493164 C-352.40564767 39.05480011 -353.10328752 39.05466859 -353.82206797 39.05453308 C-360.82830369 39.05321451 -367.83453942 39.0519387 -374.84077515 39.05069422 C-433.56051908 39.04026008 -492.28025952 39.02262016 -551 39 C-551 38.67 -551 38.34 -551 38 C-549.88645834 37.99576806 -548.77291668 37.99153612 -547.62563133 37.98717594 C-520.44591613 37.88367155 -493.2662259 37.77488538 -466.08655357 37.66066074 C-452.94231375 37.60554152 -439.79807122 37.55209626 -426.65380859 37.50268555 C-415.18825584 37.45958094 -403.72272134 37.41323996 -392.25719702 37.36312145 C-386.19452554 37.33673022 -380.13185717 37.3118857 -374.06916428 37.29092598 C-368.34498329 37.27108518 -362.62083639 37.24686753 -356.89668655 37.21950912 C-354.81283448 37.21028159 -352.72897502 37.20255768 -350.64511108 37.19658089 C-338.34138406 37.16025318 -326.0901495 36.83206895 -313.80143738 36.22401714 C-308.44994397 35.96340448 -303.10887283 35.85727501 -297.7512207 35.87060547 C-296.81602097 35.86885315 -295.88082123 35.86710083 -294.9172821 35.86529541 C-291.92009445 35.86100573 -288.92296917 35.86376928 -285.92578125 35.8671875 C-283.77988168 35.86651047 -281.63398219 35.86553717 -279.48808289 35.86428833 C-275.0250067 35.86282847 -270.56195075 35.86490893 -266.09887695 35.86962891 C-260.46255827 35.87530853 -254.82628704 35.87196773 -249.18997002 35.86616898 C-209.19899745 35.83163735 -209.19899745 35.83163735 -190.53846741 36.6824646 C-181.47587983 37.07977987 -172.4751531 36.9071962 -163.41278076 36.59106445 C-144.04778417 35.92880083 -124.75835395 36.08737779 -105.39355469 36.68164062 C-96.49137536 36.9443821 -87.86209164 37.05310909 -79 36 C-77.1049014 35.94326052 -75.20824872 35.91002538 -73.3125 35.9375 C-72.06919922 35.95103516 -72.06919922 35.95103516 -70.80078125 35.96484375 C-70.20652344 35.97644531 -69.61226562 35.98804688 -69 36 C-69 35.34 -69 34.68 -69 34 C-67.35 34.33 -65.7 34.66 -64 35 C-64 34.34 -64 33.68 -64 33 C-61.36 33 -58.72 33 -56 33 C-56 32.34 -56 31.68 -56 31 C-52.7 30.67 -49.4 30.34 -46 30 C-46 29.34 -46 28.68 -46 28 C-34 24 -34 24 -30.6640625 22.9921875 C-27.86264879 22.29371364 -27.86264879 22.29371364 -27 20 C-24.15513056 17.93100405 -21.53778544 16.20778074 -18.25 14.9375 C-15.67064676 14.10689535 -15.67064676 14.10689535 -14 11 C-13.01 11 -12.02 11 -11 11 C-11 10.34 -11 9.68 -11 9 C-9.515 8.505 -9.515 8.505 -8 8 C-7.67 7.34 -7.34 6.68 -7 6 C-6.34 6 -5.68 6 -5 6 C-5 5.34 -5 4.68 -5 4 C-4.01 4 -3.02 4 -2 4 C-2 3.34 -2 2.68 -2 2 C-1.34 2 -0.68 2 0 2 C0 1.34 0 0.68 0 0 Z " fill="#5C1EDE" transform="translate(832,840)"/>
<path d="M0 0 C0.33 0 0.66 0 1 0 C1.2011429 24.36608498 1.38437651 48.73224855 1.54658794 73.09862518 C1.6223267 84.41365021 1.70381282 95.72857812 1.79907227 107.04345703 C1.88213485 116.91136191 1.95416607 126.77927682 2.01323253 136.64735556 C2.04485368 141.86710333 2.08180691 147.08668466 2.13199425 152.30628967 C2.17917097 157.23097381 2.21146611 162.15554306 2.2329216 167.08040428 C2.24326556 168.87656217 2.25879436 170.6726999 2.28024101 172.46875954 C2.41075684 183.71222998 1.52923885 194.01825466 -1 205 C-1.19212728 205.83641777 -1.38425455 206.67283554 -1.58220387 207.5345993 C-5.40096248 222.96127526 -11.74992282 238.04989195 -21 251 C-22.11955078 252.57974609 -22.11955078 252.57974609 -23.26171875 254.19140625 C-26.80264436 259.07810194 -30.10771373 263.36940861 -35 267 C-35 264 -35 264 -33.625 262.3125 C-32 261 -32 261 -30 261 C-30 259.68 -30 258.36 -30 257 C-27.5625 254.375 -27.5625 254.375 -25 252 C-24.505 251.01 -24.505 251.01 -24 250 C-23.34 250 -22.68 250 -22 250 C-22 249.01 -22 248.02 -22 247 C-21.34 247 -20.68 247 -20 247 C-20 246.01 -20 245.02 -20 244 C-19.34 244 -18.68 244 -18 244 C-17.9175 243.34 -17.835 242.68 -17.75 242 C-16.53214922 237.12859687 -14.15798264 232.84374898 -11.49609375 228.60546875 C-7.53396216 221.70535968 -5.7233274 213.64977832 -4.39453125 205.86328125 C-4 204 -4 204 -3 203 C-2.79000055 201.04583843 -2.63167366 199.08599701 -2.5 197.125 C-2.27652749 193.81281812 -2.05207935 191.15623804 -1 188 C-0.89477184 185.49179256 -0.84517653 183.01065878 -0.84178162 180.50202942 C-0.83437465 179.34662274 -0.83437465 179.34662274 -0.82681805 178.16787452 C-0.8114234 175.57912233 -0.8030771 172.99039498 -0.79467773 170.40161133 C-0.78510076 168.54897339 -0.77509078 166.69633765 -0.76467896 164.84370422 C-0.7376043 159.80686644 -0.71660859 154.77001925 -0.69667697 149.73314881 C-0.67483321 144.47204001 -0.64743665 139.21096026 -0.62062073 133.94987488 C-0.57067204 123.98393747 -0.52574128 114.01798395 -0.48259836 104.05201501 C-0.43324458 92.707523 -0.37831956 81.36306013 -0.32291877 70.01859629 C-0.20906532 46.67909137 -0.1022336 23.33955851 0 0 Z " fill="#7E48E0" transform="translate(878,565)"/>
<path d="M0 0 C0.33 0 0.66 0 1 0 C1 1.65 1 3.3 1 5 C1.66 5.33 2.32 5.66 3 6 C2.855625 6.52464844 2.71125 7.04929687 2.5625 7.58984375 C1.16786696 13.41049968 0.8074425 18.98039287 0.8125 24.9375 C0.81185547 25.68314209 0.81121094 26.42878418 0.81054688 27.19702148 C0.84250698 30.38467889 0.98545059 32.95635177 2 36 C1.66666667 38.33333333 1.33333333 40.66666667 1 43 C1.33 43.99 1.66 44.98 2 46 C2.00431794 48.16598657 1.94236532 50.33234897 1.84375 52.49609375 C1.79089844 53.77677734 1.73804688 55.05746094 1.68359375 56.37695312 C1.59271282 58.40900169 1.4998418 60.44095256 1.40673828 62.47290039 C1.31854041 64.43875953 1.23730865 66.4049273 1.15625 68.37109375 C1.10275391 69.54599365 1.04925781 70.72089355 0.99414062 71.93139648 C0.99917807 74.56955041 1.2707121 76.50044161 2 79 C1.9140625 81.2890625 1.9140625 81.2890625 1.625 83.625 C1.53476563 84.40101563 1.44453125 85.17703125 1.3515625 85.9765625 C1 88 1 88 0 90 C0.66 90.33 1.32 90.66 2 91 C1.70703125 93.01822917 1.4140625 95.03645833 1.12109375 97.0546875 C0.8315703 99.08140667 0.8315703 99.08140667 2 101 C2.00434344 102.57377274 1.94184604 104.14803148 1.84375 105.71875 C1.79089844 106.65074219 1.73804688 107.58273437 1.68359375 108.54296875 C1.56119792 110.51432292 1.43880208 112.48567708 1.31640625 114.45703125 C1.26355469 115.38902344 1.21070313 116.32101562 1.15625 117.28125 C1.07600586 118.56612305 1.07600586 118.56612305 0.99414062 119.87695312 C0.84278537 122.05619023 0.84278537 122.05619023 2 124 C2.01614884 125.6696807 1.96515778 127.34028286 1.87890625 129.0078125 C1.83056641 129.99394531 1.78222656 130.98007812 1.73242188 131.99609375 C1.67634766 133.02863281 1.62027344 134.06117188 1.5625 135.125 C1.51029297 136.16527344 1.45808594 137.20554687 1.40429688 138.27734375 C1.27439054 140.85185116 1.13941748 143.42599296 1 146 C0.67 146 0.34 146 0 146 C-0.73546097 137.03541555 -1.14599592 128.14827774 -1.12939453 119.15478516 C-1.13114685 117.95614838 -1.13289917 116.7575116 -1.13470459 115.52255249 C-1.13831182 112.28326408 -1.13752345 109.0440176 -1.1343255 105.80472994 C-1.13176376 102.39190373 -1.13414961 98.97908 -1.13571167 95.56625366 C-1.13752088 89.84575917 -1.1351585 84.12527767 -1.13037109 78.40478516 C-1.12491522 71.80972942 -1.12670576 65.21470454 -1.1321975 58.61964953 C-1.13674571 52.92756692 -1.13737129 47.23549355 -1.13475883 41.54340971 C-1.13320745 38.15634173 -1.13297117 34.76928824 -1.13629532 31.38222122 C-1.13883989 27.61107553 -1.13495645 23.83998895 -1.12939453 20.06884766 C-1.13141876 18.96011292 -1.13344299 17.85137817 -1.13552856 16.70904541 C-1.12007934 11.04331737 -0.84927795 5.60363274 0 0 Z " fill="#0C64DC" transform="translate(145,267)"/>
<path d="M0 0 C0.99 0.33 1.98 0.66 3 1 C1.48410684 4.21847267 -0.34551315 7.10111625 -2.3125 10.0625 C-12.70787009 26.33633301 -15.2261283 42.30007325 -15.25 61.3125 C-15.25200409 62.08478943 -15.25400818 62.85707886 -15.256073 63.652771 C-15.26566798 78.81089079 -13.89783598 93.57047744 -11.60888672 108.56152344 C-11.49947754 109.35333008 -11.39006836 110.14513672 -11.27734375 110.9609375 C-11.17542725 111.64720215 -11.07351074 112.3334668 -10.96850586 113.04052734 C-11.00744761 115.4633684 -11.79345876 116.92742448 -13 119 C-14.73609614 111.82916813 -15.78896216 104.70234316 -16.625 97.375 C-16.7576123 96.22217529 -16.89022461 95.06935059 -17.02685547 93.8815918 C-17.81695302 86.65225003 -18.22542565 79.65050625 -18.03515625 72.37890625 C-17.996219 68.63660435 -18.26009972 64.97960351 -18.5625 61.25 C-19.19097795 52.67576506 -18.89056262 45.12970736 -16 37 C-15.56170213 34.33612295 -15.27801601 31.68748806 -15 29 C-14.34 29 -13.68 29 -13 29 C-12.91363281 28.38253906 -12.82726562 27.76507813 -12.73828125 27.12890625 C-11.65188041 20.58060027 -9.54126398 15.59573774 -6 10 C-5.34 10 -4.68 10 -4 10 C-3.896875 9.46375 -3.79375 8.9275 -3.6875 8.375 C-2.81907303 5.37497956 -1.44379704 2.7620465 0 0 Z " fill="#175CDF" transform="translate(300,280)"/>
<path d="M0 0 C1.14926266 0.95421808 2.29430541 1.91352045 3.4375 2.875 C4.07558594 3.40867187 4.71367187 3.94234375 5.37109375 4.4921875 C7 6 7 6 8 8 C7.443125 7.71125 6.88625 7.4225 6.3125 7.125 C5.549375 6.75375 4.78625 6.3825 4 6 C3.195625 5.566875 2.39125 5.13375 1.5625 4.6875 C-0.9856845 3.74846148 -0.9856845 3.74846148 -3.375 4.8125 C-12.36403063 12.30335886 -16.23872294 21.69316911 -18 33 C-18.32101026 36.81030942 -18.45641335 40.61579315 -18.5625 44.4375 C-18.62241254 46.37382218 -18.68604436 48.31003387 -18.75390625 50.24609375 C-18.77783447 51.08841553 -18.8017627 51.9307373 -18.82641602 52.79858398 C-19 55 -19 55 -20 58 C-19.34 58.33 -18.68 58.66 -18 59 C-16.89045985 63.33729333 -17.22579271 66.64508398 -18 71 C-17.67 71.99 -17.34 72.98 -17 74 C-16.69301138 77.38540224 -16.49095405 80.77135062 -16.28125 84.1640625 C-16.31259668 86.89869363 -16.31259668 86.89869363 -15 88 C-14.72685185 93.73611111 -14.72685185 93.73611111 -15 96 C-15.99 96.99 -15.99 96.99 -17 98 C-17.48225635 94.54209039 -17.96022208 91.08359999 -18.4375 87.625 C-18.57220703 86.65949219 -18.70691406 85.69398438 -18.84570312 84.69921875 C-19.24443373 81.80112803 -19.62698143 78.90150676 -20 76 C-20.10223877 75.22470947 -20.20447754 74.44941895 -20.30981445 73.65063477 C-21.18947801 66.12586944 -21.2559511 58.5729809 -21.29516602 51.00610352 C-21.30668255 49.46564547 -21.32712956 47.92522723 -21.35668945 46.38500977 C-21.61719125 32.73849941 -20.2899365 19.79421506 -11 9 C-3.85542169 1.92771084 -3.85542169 1.92771084 0 0 Z " fill="#2363E1" transform="translate(340,295)"/>
<path d="M0 0 C0.33 0 0.66 0 1 0 C2.47940241 28.93053603 -10.88215588 59.60086692 -30 81 C-31.63272557 82.37468642 -33.28996121 83.72276749 -35 85 C-35 82 -35 82 -33.625 80.3125 C-32 79 -32 79 -30 79 C-30 77.68 -30 76.36 -30 75 C-27.5625 72.375 -27.5625 72.375 -25 70 C-24.505 69.01 -24.505 69.01 -24 68 C-23.34 68 -22.68 68 -22 68 C-22 67.01 -22 66.02 -22 65 C-21.34 65 -20.68 65 -20 65 C-20 64.01 -20 63.02 -20 62 C-19.34 62 -18.68 62 -18 62 C-17.87625 61.01 -17.87625 61.01 -17.75 60 C-16.53214922 55.12859687 -14.15798264 50.84374898 -11.49609375 46.60546875 C-7.53396216 39.70535968 -5.7233274 31.64977832 -4.39453125 23.86328125 C-4 22 -4 22 -3 21 C-2.81288378 19.17041918 -2.67606707 17.33561461 -2.5625 15.5 C-2.16564514 10.14886027 -1.30009169 5.20036676 0 0 Z " fill="#7524DF" transform="translate(878,747)"/>
<path d="M0 0 C1.18464844 -0.01417969 2.36929687 -0.02835938 3.58984375 -0.04296875 C7.10912652 0.19059445 9.77820744 0.94615651 13.0625 2.1875 C14.35116931 2.57267422 15.6423124 2.94984747 16.9375 3.3125 C17.96875 3.60125 19 3.89 20.0625 4.1875 C20.0625 4.8475 20.0625 5.5075 20.0625 6.1875 C21.3825 6.1875 22.7025 6.1875 24.0625 6.1875 C24.7225 6.8475 25.3825 7.5075 26.0625 8.1875 C27.37997324 8.88498583 28.71164193 9.55709957 30.0625 10.1875 C30.0625 11.8375 30.0625 13.4875 30.0625 15.1875 C31.0525 15.5175 32.0425 15.8475 33.0625 16.1875 C34.5102922 19.08308441 35.0625 20.92938938 35.0625 24.1875 C35.7225 24.5175 36.3825 24.8475 37.0625 25.1875 C36.8244726 27.32974657 36.58524911 29.47186732 36.33984375 31.61328125 C36.16305476 33.25418185 36.00715515 34.89756261 35.87890625 36.54296875 C35.446012 41.67585768 34.32994571 45.55402398 32.0625 50.1875 C30.90860084 46.50793346 31.56553447 44.28549994 32.5703125 40.58984375 C34.38544874 31.73025022 33.63722891 22.62225046 28.62109375 14.99609375 C22.71803992 7.5590677 15.28122793 4.90360561 6.1015625 3.4296875 C-1.6171294 2.81457324 -9.34194234 3.84305182 -16.9375 5.1875 C-16.2775 4.5275 -15.6175 3.8675 -14.9375 3.1875 C-13.9475 3.1875 -12.9575 3.1875 -11.9375 3.1875 C-11.9375 2.5275 -11.9375 1.8675 -11.9375 1.1875 C-7.91667621 0.23739986 -4.12750253 0.02240772 0 0 Z " fill="#1D5EE0" transform="translate(369.9375,241.8125)"/>
<path d="M0 0 C0.33 0 0.66 0 1 0 C1 8.25 1 16.5 1 25 C1.66 25.33 2.32 25.66 3 26 C4.10954015 30.33729333 3.77420729 33.64508398 3 38 C3.33 38.99 3.66 39.98 4 41 C4.30698862 44.38540224 4.50904595 47.77135062 4.71875 51.1640625 C4.68740332 53.89869363 4.68740332 53.89869363 6 55 C6.27314815 60.73611111 6.27314815 60.73611111 6 63 C5.01 63.99 5.01 63.99 4 65 C3.51774365 61.54209039 3.03977792 58.08359999 2.5625 54.625 C2.42779297 53.65949219 2.29308594 52.69398438 2.15429688 51.69921875 C1.75556784 48.8011394 1.37390977 45.90137912 1 43 C0.89486084 42.22253418 0.78972168 41.44506836 0.68139648 40.64404297 C-0.30276596 32.41620041 -0.10961739 24.14632467 -0.0625 15.875 C-0.0574735 14.33073062 -0.05291264 12.78645966 -0.04882812 11.2421875 C-0.03791697 7.49475813 -0.02071614 3.74738951 0 0 Z " fill="#1852DD" transform="translate(319,328)"/>
<path d="M0 0 C0.99 0 1.98 0 3 0 C3.02927632 3.52081558 3.04689119 7.04159939 3.0625 10.5625 C3.07087891 11.55314453 3.07925781 12.54378906 3.08789062 13.56445312 C3.13505088 27.75968883 3.13505088 27.75968883 0.45727539 30.68579102 C-0.26407593 31.33632446 -0.26407593 31.33632446 -1 32 C-1.02465504 27.60343827 -1.04283842 23.2069128 -1.05493164 18.81030273 C-1.05997121 17.31355082 -1.06680287 15.81680384 -1.07543945 14.32006836 C-1.08752159 12.17300193 -1.09323191 10.02600038 -1.09765625 7.87890625 C-1.10289307 6.5854126 -1.10812988 5.29191895 -1.11352539 3.95922852 C-1 1 -1 1 0 0 Z " fill="#6847E1" transform="translate(661,634)"/>
<path d="M0 0 C1.2077558 3.62326739 0.54311128 4.64146369 -1 8 C-1.66 8 -2.32 8 -3 8 C-3.04125 9.299375 -3.0825 10.59875 -3.125 11.9375 C-3.7654925 17.77513161 -6.60727954 21.37281981 -10 26 C-11.30107368 28.10926151 -12.56830066 30.23473823 -13.82421875 32.37109375 C-15 34 -15 34 -18 36 C-16.50696356 31.90176733 -14.49528148 28.35843315 -12.25 24.625 C-7.98826502 17.38982516 -4.90656961 9.86094962 -2 2 C-1.34 2 -0.68 2 0 2 C0 1.34 0 0.68 0 0 Z " fill="#6237E0" transform="translate(692,692)"/>
<path d="M0 0 C2.55035357 4.4927851 2.34240363 8.44067891 2.3125 13.5 C2.31121094 14.39041992 2.30992187 15.28083984 2.30859375 16.19824219 C2.20729506 23.18025436 1.26637187 29.3627681 -1 36 C-1.99 36 -2.98 36 -4 36 C-3.79503906 35.16082031 -3.59007812 34.32164062 -3.37890625 33.45703125 C-0.88720407 22.33378657 -0.29749406 11.37544963 0 0 Z " fill="#5834DF" transform="translate(746,557)"/>
<path d="M0 0 C0.66 0.33 1.32 0.66 2 1 C-0.96111164 4.39979485 -2.67926331 5.14730675 -7 6 C-8.6074011 6.76378165 -10.19108595 7.57907838 -11.75 8.4375 C-16.47440137 10.89191873 -20.77024328 12.07213994 -26 13 C-25.67 12.01 -25.34 11.02 -25 10 C-22.30961961 8.88520149 -19.70469296 7.93990265 -16.9375 7.0625 C-12.29451799 5.56071593 -7.89458502 4.02217782 -3.56640625 1.74609375 C-2.38949219 1.16988281 -1.21257813 0.59367188 0 0 Z " fill="#5A31DF" transform="translate(625,770)"/>
<path d="M0 0 C0 0.33 0 0.66 0 1 C-4.04961997 1.96638658 -7.84202407 2.13396116 -12 2.125 C-13.19625 2.12757813 -14.3925 2.13015625 -15.625 2.1328125 C-18.55327693 2.01757938 -21.15786976 1.67823563 -24 1 C-24 0.67 -24 0.34 -24 0 C-21.12639397 -0.39158153 -18.25243101 -0.7636482 -15.375 -1.125 C-14.56675781 -1.23714844 -13.75851562 -1.34929688 -12.92578125 -1.46484375 C-8.05518405 -2.05881902 -4.61899308 -2.01800669 0 0 Z " fill="#6242E1" transform="translate(578,750)"/>
<path d="M0 0 C0 0.66 0 1.32 0 2 C-1.65 2.33 -3.3 2.66 -5 3 C-5 3.66 -5 4.32 -5 5 C-5.99 5.33 -6.98 5.66 -8 6 C-9.23060421 8.46120841 -9.2057723 10.25776866 -9.31640625 13.0078125 C-9.35830078 13.99394531 -9.40019531 14.98007812 -9.44335938 15.99609375 C-9.48267578 17.02863281 -9.52199219 18.06117188 -9.5625 19.125 C-9.60568359 20.16527344 -9.64886719 21.20554687 -9.69335938 22.27734375 C-9.7996288 24.85142528 -9.90166583 27.42560508 -10 30 C-10.33 30 -10.66 30 -11 30 C-11.33 21.42 -11.66 12.84 -12 4 C-2 0 -2 0 0 0 Z " fill="#5027DC" transform="translate(709,629)"/>
<path d="M0 0 C0.99 0 1.98 0 3 0 C3 0.66 3 1.32 3 2 C-0.48936711 5.21173211 -4.26731637 8.07723829 -8 11 C-9.06347656 11.86044922 -9.06347656 11.86044922 -10.1484375 12.73828125 C-11.9375 14.125 -11.9375 14.125 -15 16 C-17.19140625 15.6171875 -17.19140625 15.6171875 -19 15 C-18.01 14.67 -17.02 14.34 -16 14 C-15.34 13.01 -14.68 12.02 -14 11 C-13.01 11 -12.02 11 -11 11 C-11 10.34 -11 9.68 -11 9 C-10.01 8.67 -9.02 8.34 -8 8 C-7.67 7.34 -7.34 6.68 -7 6 C-6.34 6 -5.68 6 -5 6 C-5 5.34 -5 4.68 -5 4 C-4.01 4 -3.02 4 -2 4 C-2 3.34 -2 2.68 -2 2 C-1.34 2 -0.68 2 0 2 C0 1.34 0 0.68 0 0 Z " fill="#7A26DF" transform="translate(832,840)"/>
<path d="M0 0 C0.33 0.66 0.66 1.32 1 2 C-1.10084121 5.15126182 -1.49579008 5.4603819 -4.84375 6.60546875 C-5.59527344 6.86650391 -6.34679687 7.12753906 -7.12109375 7.39648438 C-7.90613281 7.65751953 -8.69117188 7.91855469 -9.5 8.1875 C-10.28503906 8.46013672 -11.07007813 8.73277344 -11.87890625 9.01367188 C-17.68356438 11 -17.68356438 11 -20 11 C-19.67 10.01 -19.34 9.02 -19 8 C-18.01 8 -17.02 8 -16 8 C-15.67 7.34 -15.34 6.68 -15 6 C-13.14453125 5.5078125 -13.14453125 5.5078125 -10.8125 5.125 C-6.3407835 4.23922868 -3.59298156 2.76383197 0 0 Z " fill="#1B61DF" transform="translate(338,258)"/>
<path d="M0 0 C-1.9375 2.0625 -1.9375 2.0625 -5 4 C-6.89648438 3.97265625 -6.89648438 3.97265625 -9.03125 3.625 C-14.23122314 2.91272547 -19.32134728 2.88751102 -24.5625 2.9375 C-25.93245117 2.94426758 -25.93245117 2.94426758 -27.33007812 2.95117188 C-29.55345738 2.9628126 -31.77669121 2.97916149 -34 3 C-34 2.67 -34 2.34 -34 2 C-29.4585881 1.66313457 -24.9168335 1.33112875 -20.375 1 C-19.08980469 0.90460937 -17.80460938 0.80921875 -16.48046875 0.7109375 C-15.23652344 0.62070312 -13.99257813 0.53046875 -12.7109375 0.4375 C-11.56931152 0.35371094 -10.42768555 0.26992188 -9.25146484 0.18359375 C-6.15908432 0.00898269 -3.09646463 -0.03281022 0 0 Z " fill="#4B23DD" transform="translate(589,784)"/>
<path d="M0 0 C2.20581448 2.20581448 2.51587547 3.25780129 3.2890625 6.2109375 C3.50820313 7.04367187 3.72734375 7.87640625 3.953125 8.734375 C4.17484375 9.60578125 4.3965625 10.4771875 4.625 11.375 C4.85445313 12.23867188 5.08390625 13.10234375 5.3203125 13.9921875 C6.32273557 17.85867649 7 20.96386006 7 25 C6.34 25 5.68 25 5 25 C4.80664062 24.10796875 4.61328125 23.2159375 4.4140625 22.296875 C4.15367187 21.12640625 3.89328125 19.9559375 3.625 18.75 C3.36976563 17.58984375 3.11453125 16.4296875 2.8515625 15.234375 C2.14957126 12.10744922 2.14957126 12.10744922 0.90625 9.84375 C-0.66380409 6.64950203 -0.11684453 3.50533597 0 0 Z " fill="#1F4FDE" transform="translate(292,417)"/>
<path d="M0 0 C1.840832 3.155712 2.66725833 6.38382345 3.4921875 9.92578125 C3.95259998 11.80638914 4.5325212 13.65673263 5.125 15.5 C6.13485505 19.53942021 6.14552102 22.85265087 6 27 C4.21084555 24.31626833 3.60618946 22.99558593 2.9296875 19.98046875 C2.75566406 19.20509766 2.58164062 18.42972656 2.40234375 17.63085938 C2.14130859 16.42139648 2.14130859 16.42139648 1.875 15.1875 C1.60236328 13.99543945 1.60236328 13.99543945 1.32421875 12.77929688 C0.36943288 8.43968743 -0.21609067 4.4730769 0 0 Z " fill="#1C50DE" transform="translate(325,396)"/>
<path d="M0 0 C0.99 0.33 1.98 0.66 3 1 C1.4022331 4.37128815 -0.4984676 7.47852322 -2.5 10.625 C-3.1084375 11.58664062 -3.716875 12.54828125 -4.34375 13.5390625 C-6 16 -6 16 -8 18 C-8.66 18 -9.32 18 -10 18 C-8.87548273 15.0280615 -7.77706209 12.66559313 -6 10 C-5.34 10 -4.68 10 -4 10 C-3.8453125 9.195625 -3.8453125 9.195625 -3.6875 8.375 C-2.81907303 5.37497956 -1.44379704 2.7620465 0 0 Z " fill="#1C64E0" transform="translate(300,280)"/>
<path d="M0 0 C8.25 0.66 16.5 1.32 25 2 C25 2.33 25 2.66 25 3 C24.24074219 3.06058594 23.48148437 3.12117188 22.69921875 3.18359375 C21.70535156 3.26738281 20.71148437 3.35117187 19.6875 3.4375 C18.20830078 3.55931641 18.20830078 3.55931641 16.69921875 3.68359375 C13.90624401 3.91812559 13.90624401 3.91812559 11 5 C6.86226193 4.55267697 3.64462245 2.94944922 0 1 C0 0.67 0 0.34 0 0 Z " fill="#1554DD" transform="translate(354,306)"/>
<path d="M0 0 C0.66 0.99 1.32 1.98 2 3 C-1.48351316 8.22526974 -6.49725911 12.05785657 -12 15 C-14.81640625 15.19921875 -14.81640625 15.19921875 -17 15 C-14.44308029 12.9757719 -11.80091854 11.28151339 -9 9.625 C-4.92419949 7.11272818 -2.16146255 4.32292511 0 0 Z " fill="#1A57DF" transform="translate(400,292)"/>
<path d="M0 0 C0 0.33 0 0.66 0 1 C-1.03640625 1.06058594 -2.0728125 1.12117187 -3.140625 1.18359375 C-4.51042873 1.26803371 -5.88021975 1.35267997 -7.25 1.4375 C-8.27287109 1.49647461 -8.27287109 1.49647461 -9.31640625 1.55664062 C-12.05851142 1.7296861 -14.67494193 1.91765196 -17.34375 2.59375 C-19 3 -19 3 -21.25 2.0625 C-21.8275 1.711875 -22.405 1.36125 -23 1 C-15.61882732 -1.46039089 -7.59439142 -1.3144139 0 0 Z " fill="#106CE2" transform="translate(284,145)"/>
<path d="M0 0 C0.33 0.66 0.66 1.32 1 2 C-1.64254508 8.77870259 -5.30174552 12.57417128 -11 17 C-11.66 16.67 -12.32 16.34 -13 16 C-12.39671875 15.34773437 -11.7934375 14.69546875 -11.171875 14.0234375 C-7.06829241 9.53597138 -3.15299809 5.20930119 0 0 Z " fill="#5029DE" transform="translate(737,602)"/>
<path d="M0 0 C2.0625 0.4375 2.0625 0.4375 4 1 C-1.0940919 7.86214442 -1.0940919 7.86214442 -4.875 8.4375 C-5.57625 8.293125 -6.2775 8.14875 -7 8 C-6.02133662 6.85373678 -5.04205413 5.70800212 -4.0625 4.5625 C-3.51722656 3.92441406 -2.97195313 3.28632813 -2.41015625 2.62890625 C-1.63204305 1.73008851 -0.84063472 0.84063472 0 0 Z " fill="#2D4DDD" transform="translate(554,296)"/>
<path d="M0 0 C2.74332921 2.31445295 3.45890844 3.88360519 3.8125 7.4375 C3.90144531 8.19933594 3.99039062 8.96117187 4.08203125 9.74609375 C3.98860268 12.31315505 3.29378268 13.80706333 2 16 C0.61470179 10.54538831 -0.2396943 5.63281599 0 0 Z " fill="#2965E1" transform="translate(285,383)"/>
<path d="M0 0 C1.14926266 0.95421808 2.29430541 1.91352045 3.4375 2.875 C4.39462891 3.67550781 4.39462891 3.67550781 5.37109375 4.4921875 C7 6 7 6 8 8 C7.1646875 7.566875 7.1646875 7.566875 6.3125 7.125 C5.549375 6.75375 4.78625 6.3825 4 6 C3.175 5.5875 2.35 5.175 1.5 4.75 C-0.98784359 3.7276409 -0.98784359 3.7276409 -3.3125 4.875 C-4.1478125 5.431875 -4.1478125 5.431875 -5 6 C-5 5.01 -5 4.02 -5 3 C-2.5 1.3125 -2.5 1.3125 0 0 Z " fill="#2864E0" transform="translate(340,295)"/>
<path d="M0 0 C0.99 0.33 1.98 0.66 3 1 C-3.07439825 7.70459519 -3.07439825 7.70459519 -6.9375 8.9375 C-7.9584375 8.9684375 -7.9584375 8.9684375 -9 9 C-6.33224795 5.44299727 -3.7174905 2.478327 0 0 Z " fill="#5D30DE" transform="translate(656,748)"/>
<path d="M0 0 C-2.20432985 0.84549638 -4.41248533 1.67642814 -6.625 2.5 C-8.46964844 3.19609375 -8.46964844 3.19609375 -10.3515625 3.90625 C-13.81042866 4.94316919 -16.42185036 5.22019382 -20 5 C-18.68 4.67 -17.36 4.34 -16 4 C-16 3.34 -16 2.68 -16 2 C-14.96875 1.87625 -13.9375 1.7525 -12.875 1.625 C-9.05230364 1.12271702 -9.05230364 1.12271702 -5.75 -0.125 C-3 -1 -3 -1 0 0 Z " fill="#4E2ADD" transform="translate(602,744)"/>
<path d="M0 0 C0 3.13627349 -0.46624932 4.28532716 -1.875 7 C-2.22304687 7.680625 -2.57109375 8.36125 -2.9296875 9.0625 C-3.86683876 10.758949 -4.92494126 12.3874119 -6 14 C-6.98464547 11.3921814 -7.1236295 10.31037786 -6.07421875 7.67578125 C-5.61660156 6.89589844 -5.15898437 6.11601562 -4.6875 5.3125 C-4.23761719 4.52488281 -3.78773438 3.73726562 -3.32421875 2.92578125 C-2 1 -2 1 0 0 Z " fill="#197AE3" transform="translate(163,216)"/>
<path d="M0 0 C0.66 0.33 1.32 0.66 2 1 C-1.08672897 5.63009345 -4.75495732 8.25165244 -10 10 C-10.66 9.67 -11.32 9.34 -12 9 C-11.21753906 8.43410156 -10.43507813 7.86820313 -9.62890625 7.28515625 C-8.61699219 6.55167969 -7.60507812 5.81820312 -6.5625 5.0625 C-5.55316406 4.33160156 -4.54382813 3.60070312 -3.50390625 2.84765625 C-1.17707392 1.22678115 -1.17707392 1.22678115 0 0 Z " fill="#572EDE" transform="translate(722,619)"/>
<path d="M0 0 C1 3 1 3 -0.43359375 6.13671875 C-1.09135973 7.3260128 -1.75977815 8.50946371 -2.4375 9.6875 C-2.77587891 10.29400391 -3.11425781 10.90050781 -3.46289062 11.52539062 C-4.29957915 13.0220025 -5.14862831 14.51169189 -6 16 C-7.125 12.25 -7.125 12.25 -6 10 C-5.34 10 -4.68 10 -4 10 C-3.71125 9.0925 -3.4225 8.185 -3.125 7.25 C-2.23468224 4.67797092 -1.28505587 2.38653234 0 0 Z " fill="#542BDD" transform="translate(655,687)"/>
<path d="M0 0 C0.268125 0.639375 0.53625 1.27875 0.8125 1.9375 C1.88667752 4.33131686 1.88667752 4.33131686 5 5 C5 7.31 5 9.62 5 12 C5.66 12 6.32 12 7 12 C6.67 12.99 6.34 13.98 6 15 C2.35219334 10.8310781 0 5.55196264 0 0 Z " fill="#224DDE" transform="translate(339,449)"/>
<path d="M0 0 C0.99 0 1.98 0 3 0 C3 0.66 3 1.32 3 2 C1.25 3.7265625 1.25 3.7265625 -1 5.625 C-1.7425 6.25664063 -2.485 6.88828125 -3.25 7.5390625 C-3.8275 8.02117188 -4.405 8.50328125 -5 9 C-5.66 8.67 -6.32 8.34 -7 8 C-7 7.34 -7 6.68 -7 6 C-6.34 6 -5.68 6 -5 6 C-5 5.34 -5 4.68 -5 4 C-4.01 4 -3.02 4 -2 4 C-2 3.34 -2 2.68 -2 2 C-1.34 2 -0.68 2 0 2 C0 1.34 0 0.68 0 0 Z " fill="#802FE1" transform="translate(832,840)"/>
<path d="M0 0 C0.33 0 0.66 0 1 0 C0.50269348 4.97306516 -0.55302334 8.63799813 -3 13 C-3.66 12.67 -4.32 12.34 -5 12 C-3.41037341 7.96479403 -1.71767682 3.98188718 0 0 Z " fill="#7E2DE1" transform="translate(867,792)"/>
<path d="M0 0 C0.33 0.66 0.66 1.32 1 2 C-0.58759644 6.58747193 -2.68985663 10.53706093 -7 13 C-5.35821735 8.22390502 -2.73453298 4.20617096 0 0 Z " fill="#592BDF" transform="translate(681,715)"/>
<path d="M0 0 C0.33 0.99 0.66 1.98 1 3 C-5.28571429 5.42857143 -5.28571429 5.42857143 -9 4 C-8.01 4 -7.02 4 -6 4 C-6 3.34 -6 2.68 -6 2 C-4.02 1.34 -2.04 0.68 0 0 Z " fill="#385AE1" transform="translate(542,305)"/>
<path d="M0 0 C0.66 0.33 1.32 0.66 2 1 C1.39009109 4.55780196 0.4216319 7.6828589 -1 11 C-1.33 11 -1.66 11 -2 11 C-1.125 3.375 -1.125 3.375 0 0 Z " fill="#363EDF" transform="translate(602,419)"/>
<path d="M0 0 C2.60691842 2.60691842 2.70416963 4.37607794 3 8 C2.34 8.99 1.68 9.98 1 11 C-0.28317892 7.15046324 -0.06643637 4.05261865 0 0 Z " fill="#2459E0" transform="translate(292,417)"/>
<path d="M0 0 C0.66 0.33 1.32 0.66 2 1 C1.67 5.29 1.34 9.58 1 14 C0.67 14 0.34 14 0 14 C-0.19456705 12.04235617 -0.38044247 10.08384679 -0.5625 8.125 C-0.66691406 7.03445313 -0.77132813 5.94390625 -0.87890625 4.8203125 C-1 2 -1 2 0 0 Z " fill="#3268E1" transform="translate(321,366)"/>
<path d="M0 0 C1.485 0.99 1.485 0.99 3 2 C3.1875 5.625 3.1875 5.625 3 9 C2.34 9 1.68 9 1 9 C-0.4783226 6.04335481 -0.06032783 3.25770263 0 0 Z " fill="#6053E5" transform="translate(877,268)"/>
<path d="M0 0 C2.89932357 2.39509338 3.50168276 4.31245243 4 8 C3.01 7.67 2.02 7.34 1 7 C1 5.68 1 4.36 1 3 C0.34 3 -0.32 3 -1 3 C-0.67 2.01 -0.34 1.02 0 0 Z " fill="#274EDE" transform="translate(315,485)"/>
<path d="M0 0 C2.96 4.44 2.96 4.44 4 7 C3.67 7.99 3.34 8.98 3 10 C0.51559898 7.83965128 -0.58789525 6.29683798 -1 3 C-0.67 2.01 -0.34 1.02 0 0 Z " fill="#3B64E1" transform="translate(338,443)"/>
<path d="M0 0 C1.1875 1.6875 1.1875 1.6875 2 4 C0.625 6.75 0.625 6.75 -1 9 C-2.25541557 5.23375329 -1.37061958 3.62811066 0 0 Z " fill="#373EDD" transform="translate(599,431)"/>
</svg>
